<svg width="92" height="81" viewBox="0 0 92 81" fill="none" xmlns="http://www.w3.org/2000/svg">
<g clip-path="url(#clip0_628_627)">
<path d="M81.4498 27.8649H10.5505V70.2405H81.4498V27.8649Z" fill="#455C6B"/>
<path d="M84.5997 25.2329C84.5275 25.1483 84.451 25.0669 84.3713 24.9884C84.2913 24.9097 84.2081 24.8343 84.1219 24.7625C83.4015 24.1602 82.4688 23.797 81.4494 23.797H10.5505C9.40929 23.797 8.37622 24.2524 7.62854 24.9884C6.88048 25.7249 6.41821 26.7418 6.41821 27.8649V74.3085H85.5817V27.8649C85.5817 26.8614 85.2127 25.9424 84.5997 25.2329ZM81.4494 70.2405H10.5505V27.8649H81.4494V70.2405Z" fill="#394C59"/>
<path d="M92 74.3085H0V79.1828H92V74.3085Z" fill="#EFEFEF"/>
<path d="M88.5564 81H3.44359L0 79.1828H92L88.5564 81Z" fill="#D2D2D2"/>
<path d="M58.1435 74.3085H33.8568V76.7456H58.1435V74.3085Z" fill="#D2D2D2"/>
<path d="M60.2406 58.2139L65.8327 62.5566C65.81 62.5766 65.7874 62.597 65.764 62.6166C65.762 62.6185 65.7601 62.6201 65.7577 62.622C65.1256 63.1593 64.3022 63.4841 63.4019 63.4845L28.5955 63.4979C27.6983 63.4983 26.8768 63.1758 26.2451 62.6427C26.2432 62.6408 26.2412 62.6393 26.2389 62.6374C26.2158 62.6178 26.1928 62.5982 26.1705 62.5778L31.7568 58.2323L41.366 50.7579L42.2539 50.0668L44.6968 48.1666L45.9993 47.1535L47.3025 48.1659L49.7466 50.0641L50.6352 50.7544L60.2406 58.2139Z" fill="#F4BF21"/>
<path d="M45.9852 49.0525L43.2361 50.9451L42.2476 51.6257L42.1027 51.7253L31.9742 58.6982L26.2451 62.6423C26.2431 62.6404 26.2411 62.6389 26.2388 62.637C26.2158 62.6174 26.1927 62.5978 26.1705 62.5774C25.5185 61.9955 25.0835 61.1822 24.9996 60.2686L24.9906 37.8514C25.0683 36.9993 25.4513 36.2337 26.0315 35.6622C26.0487 35.6453 26.0658 35.6288 26.083 35.6126C26.1322 35.5661 26.1826 35.5208 26.2341 35.4773L31.9664 39.4173L44.6964 48.1666L45.9852 49.0525Z" fill="#FFCE39"/>
<path d="M67.0008 38.1589L67.0094 59.93C67.0097 60.97 66.5561 61.9063 65.8322 62.5566C65.8096 62.5766 65.7869 62.597 65.7635 62.6166C65.7615 62.6185 65.7596 62.6201 65.7572 62.622L60.0214 58.6797L49.8992 51.7226L49.7543 51.6231L48.765 50.9432L46.0144 49.0525L47.3024 48.1658L56.5365 41.8087L60.014 39.4146L65.7467 35.4677C65.7986 35.5119 65.8494 35.5573 65.8982 35.6042C65.9158 35.6207 65.9329 35.6376 65.9501 35.6545C66.599 36.2968 67.0004 37.1819 67.0008 38.1589Z" fill="#FFCE39"/>
<path d="M65.8986 35.6045C65.9162 35.6211 65.9334 35.638 65.9505 35.6549L60.8504 40.6833L50.6356 50.7548L49.7547 51.6234L48.9462 52.421C47.3208 54.0233 44.6835 54.0245 43.0569 52.4233L42.2476 51.6265L41.366 50.7587L31.1356 40.6872L26.0319 35.663C26.049 35.6461 26.0662 35.6295 26.0834 35.6134C26.1326 35.5669 26.183 35.5215 26.2345 35.4781C26.8658 34.9442 27.6865 34.6214 28.5841 34.621L63.3905 34.6075C64.2912 34.6072 65.1146 34.9316 65.7471 35.4685C65.7987 35.5123 65.8494 35.5577 65.8986 35.6045Z" fill="#999999"/>
<path d="M65.8986 35.6045L60.5696 40.3751L57.4813 43.1397L49.7469 50.0641L48.7654 50.9431L48.0595 51.575C46.8929 52.6197 45.1102 52.6204 43.9428 51.5766L43.2361 50.9451L42.2538 50.0668L31.4147 40.3785L26.0834 35.613C26.1326 35.5665 26.1829 35.5211 26.2345 35.4777C26.8658 34.9439 27.6865 34.621 28.5841 34.6206L63.3905 34.6072C64.2912 34.6068 65.1146 34.9312 65.7471 35.4681C65.7986 35.5123 65.8494 35.5577 65.8986 35.6045Z" fill="#FDE350"/>
<path d="M42.2476 51.6261C40.9385 52.5789 39.6177 53.5152 38.2926 54.4453L37.7959 54.7943L37.2981 55.1418L36.3018 55.8359L34.3039 57.2169L32.2999 58.589L31.2949 59.2712L30.7924 59.6121L30.2888 59.9511C28.9457 60.8563 27.5987 61.7553 26.2396 62.6377C27.5483 61.6845 28.8696 60.7487 30.1947 59.8185L30.6913 59.4695L31.1895 59.1221L32.1859 58.428L34.1837 57.047L36.1882 55.6752L37.1931 54.993L37.6956 54.6521L38.1993 54.3131C39.5416 53.4076 40.8885 52.5086 42.2476 51.6261Z" fill="white"/>
<path d="M49.7548 51.6231C51.1138 52.504 52.4608 53.4018 53.8039 54.3054L54.3076 54.644L54.81 54.9842L55.815 55.6653L57.8195 57.0347L59.8173 58.4134L60.8137 59.1063L61.3119 59.453L61.8085 59.8016C63.1336 60.7302 64.4548 61.6649 65.7635 62.6166C64.4045 61.7361 63.0571 60.8382 61.714 59.9346L61.2104 59.596L60.7079 59.2555L59.7029 58.5744L57.6984 57.2046L55.7006 55.8255L54.7042 55.1325L54.2064 54.7859L53.7098 54.4373C52.3847 53.5091 51.0639 52.5747 49.7548 51.6231Z" fill="white"/>
<path d="M64.3416 0L64.3389 0.00269044L46.7309 16.2015L39.531 11.155L35.387 8.25043L27.6584 2.83381L64.3366 0.000384349L64.3416 0Z" fill="#F4F4F4"/>
<path d="M55.9759 2.89337L39.531 11.155L35.387 8.25043L55.9759 2.89337Z" fill="#E1E0E0"/>
<path d="M39.531 11.155L35.7957 19.189L35.7821 19.2178L35.7805 19.174L35.387 8.25043L39.531 11.155Z" fill="#E1E0E0"/>
<path d="M35.7821 19.2178L42.7271 13.3953L39.531 11.155L35.7821 19.2178Z" fill="#C5C4C4"/>
<path d="M21.3034 55.9312C21.1871 55.9155 21.0746 55.8647 20.9836 55.7783C20.8048 55.6088 20.626 55.4331 20.4519 55.2563C19.9482 54.7436 19.4602 54.2067 19.0018 53.6593C18.7996 53.418 18.8343 53.0613 19.0795 52.8622C19.3247 52.6631 19.687 52.6973 19.8893 52.9387C20.3285 53.4629 20.7958 53.9776 21.2788 54.4688C21.4432 54.636 21.6122 54.8016 21.7813 54.9619C22.0101 55.1787 22.0175 55.5373 21.7973 55.7625C21.6642 55.8982 21.4795 55.9551 21.3034 55.9312Z" fill="white"/>
<path d="M17.6677 51.5954C17.5092 51.5739 17.3605 51.4878 17.2656 51.3459C16.7311 50.5473 16.2356 49.7113 15.7925 48.8615C15.6477 48.5832 15.7589 48.2419 16.0416 48.0993C16.3243 47.9568 16.671 48.0663 16.8158 48.3446C17.2398 49.1582 17.7146 49.9584 18.2264 50.7233C18.4014 50.9843 18.328 51.3356 18.0625 51.5078C17.941 51.5858 17.8009 51.6135 17.6677 51.5954Z" fill="white"/>
<path d="M15.0596 46.5931C14.8586 46.5658 14.6782 46.4343 14.6005 46.2345C14.2534 45.3424 13.9516 44.4215 13.7037 43.4968C13.6225 43.1943 13.806 42.8845 14.1132 42.8049C14.4205 42.7254 14.7352 42.9056 14.816 43.2081C15.0534 44.0937 15.3423 44.9754 15.6746 45.8294C15.7882 46.1215 15.6398 46.4489 15.3431 46.5608C15.2498 46.5962 15.1526 46.6058 15.0596 46.5931Z" fill="white"/>
<path d="M13.6014 41.1569C13.3554 41.1234 13.1504 40.9347 13.1114 40.6807C12.9657 39.7363 12.8705 38.7735 12.8283 37.8184C12.8146 37.5059 13.0606 37.2415 13.378 37.228C13.6954 37.2142 13.9641 37.4567 13.9777 37.7692C14.0183 38.684 14.1097 39.6064 14.2491 40.5108C14.2967 40.8198 14.0808 41.1084 13.7669 41.1553C13.7103 41.1642 13.6548 41.1642 13.6014 41.1569Z" fill="white"/>
<path d="M13.3519 35.5396C13.0564 35.4996 12.8377 35.241 12.8569 34.9431C12.899 34.2893 12.9662 33.629 13.0568 32.9806C13.0982 32.6831 13.1454 32.3826 13.1969 32.087C13.2508 31.7787 13.5479 31.5716 13.8611 31.625C14.1742 31.678 14.3842 31.9705 14.3304 32.2788C14.2812 32.5617 14.2359 32.8495 14.1961 33.1347C14.1094 33.7558 14.045 34.3885 14.0047 35.0146C13.9848 35.3267 13.7115 35.5634 13.3945 35.5438C13.3804 35.5431 13.366 35.5415 13.3519 35.5396Z" fill="white"/>
<path d="M14.321 29.9992C14.2944 29.9957 14.2675 29.99 14.2409 29.9827C13.9352 29.897 13.7584 29.5837 13.8454 29.2828C14.1117 28.363 14.4315 27.4483 14.7961 26.5635C14.9156 26.2737 15.251 26.1338 15.5454 26.2518C15.8397 26.3694 15.9815 26.6996 15.862 26.9894C15.513 27.8365 15.2069 28.7124 14.9519 29.5933C14.8723 29.8678 14.6005 30.0369 14.321 29.9992Z" fill="white"/>
<path d="M16.4671 24.7905C16.4007 24.7817 16.3351 24.7609 16.2731 24.7279C15.9935 24.5799 15.8885 24.2363 16.0392 23.9611C16.4987 23.1201 17.0106 22.2942 17.5603 21.5063C17.7403 21.2484 18.0979 21.183 18.3599 21.3602C18.6219 21.5374 18.6882 21.8898 18.5083 22.1473C17.982 22.9018 17.492 23.6924 17.052 24.4976C16.9352 24.7117 16.6982 24.8216 16.4671 24.7905Z" fill="#E0E0E0"/>
<path d="M19.6988 20.1572C19.593 20.143 19.4899 20.0995 19.4028 20.0257C19.1619 19.822 19.1342 19.4646 19.3412 19.2274C19.8901 18.5979 20.4773 17.9845 21.0864 17.4045C21.1762 17.3191 21.2664 17.2338 21.3569 17.1496C21.5873 16.9344 21.9516 16.944 22.1702 17.1712C22.3888 17.3979 22.3791 17.7565 22.1483 17.9718C22.0609 18.0536 21.9734 18.1359 21.8864 18.2185C21.3027 18.7747 20.7397 19.3623 20.2138 19.9654C20.0818 20.1168 19.8858 20.1825 19.6988 20.1572Z" fill="#E0E0E0"/>
<path d="M23.8256 16.266C23.6858 16.2472 23.5523 16.1776 23.4566 16.0612C23.2571 15.8179 23.2954 15.4616 23.5425 15.2648C24.2949 14.6664 25.0796 14.091 25.8757 13.5552C26.1377 13.3788 26.4957 13.4449 26.6753 13.7032C26.8545 13.9615 26.7874 14.3135 26.525 14.4903C25.7543 15.0092 24.9941 15.5661 24.2656 16.1457C24.1368 16.248 23.9771 16.2868 23.8256 16.266Z" fill="#E0E0E0"/>
<path d="M28.5474 13.0882C28.3764 13.0652 28.2182 12.9672 28.1261 12.808C27.9684 12.5367 28.0644 12.1908 28.34 12.0355C29.1783 11.5635 30.0466 11.1196 30.9208 10.716C31.2081 10.5834 31.5509 10.7049 31.6856 10.9881C31.8207 11.271 31.697 11.6085 31.4092 11.7411C30.5632 12.132 29.7226 12.5617 28.9109 13.0183C28.7965 13.0832 28.6688 13.1048 28.5474 13.0882Z" fill="#E0E0E0"/>
</g>
<defs>
<clipPath id="clip0_628_627">
<rect width="92" height="81" fill="white"/>
</clipPath>
</defs>
</svg>
